# AST/ASF file generated using VICON BodyLanguage
# -----------------------------------------------
:version 1.10
:name VICON
:units
  mass 1.0
  length 0.45
  angle deg
:documentation
   .ast/.asf automatically generated from VICON data using
   VICON BodyBuilder and BodyLanguage model FoxedUp or BRILLIANT.MOD
:root
   order TX TY TZ RX RY RZ
   axis XYZ
   position 0 0 0  
   orientation 0 0 0 
:bonedata
  begin
     id 1 
     name lhipjoint
     direction 0.700308 -0.549349 0.455834 
     length 2.59063 
     axis 0 0 0  XYZ
  end
  begin
     id 2 
     name lfemur
     direction 0.34202 -0.939693 0  
     length 6.31066  
     axis 0 0 20  XYZ
    dof rx ry rz
    limits (-160.0 20.0)
           (-70.0 70.0)
           (-60.0 70.0)
  end
  begin
     id 3 
     name ltibia
     direction 0.34202 -0.939693 0   
     length 7.36093   
     axis 0 0 20   XYZ
    dof rx
    limits (-10.0 170.0)
  end
  begin
     id 4 
     name lfoot
     direction 0.0905332 -0.248738 0.96433   
     length 2.0233   
     axis -90 7.62852e-016 20   XYZ
    dof rx rz
    limits (-45.0 90.0)
           (-70.0 20.0)
  end
  begin
     id 5 
     name ltoes
     direction 1.53573e-011 -4.21855e-011 1   
     length 1.01524   
     axis -90 7.62852e-016 20   XYZ
    dof rx
    limits (-90.0 20.0)
  end
  begin
     id 6 
     name rhipjoint
     direction -0.61416 -0.607328 0.503944   
     length 2.34332  
     axis 0 0 0  XYZ 
  end
  begin
     id 7 
     name rfemur
     direction -0.34202 -0.939693 0   
     length 6.58548   
     axis 0 0 -20   XYZ
    dof rx ry rz
    limits (-160.0 20.0)
           (-70.0 70.0)
           (-70.0 60.0)
  end
  begin
     id 8 
     name rtibia
     direction -0.34202 -0.939693 0   
     length 7.20707   
     axis 0 0 -20   XYZ
    dof rx
    limits (-10.0 170.0)
 end
 begin
     id 9 
     name rfoot
     direction -0.136772 -0.375778 0.916561   
     length 1.92184  
     axis -90 -7.62852e-016 -20   XYZ
    dof rx rz
    limits (-45.0 90.0)
           (-20.0 70.0)
  end
  begin
     id 10 
     name rtoes
     direction -1.53535e-011 -4.21828e-011 1   
     length 0.951089   
     axis -90 -7.62852e-016 -20   XYZ
    dof rx
    limits (-90.0 20.0)
  end
  begin
     id 11 
     name lowerback
     direction -0.0444974 0.988086 -0.147332   
     length 1.9609   
     axis 0 0 0   XYZ
    dof rx ry rz
    limits (-20.0 45.0)
           (-30.0 30.0)
           (-30.0 30.0)
  end
  begin
     id 12 
     name upperback
     direction 0.00613146 0.999513 0.0306081   
     length 1.94944   
     axis 0 0 0   XYZ
    dof rx ry rz
    limits (-20.0 45.0)
           (-30.0 30.0)
           (-30.0 30.0)
  end
  begin
     id 13 
     name thorax
     direction 0.0254621 0.994518 0.101418   
     length 2.0119   
     axis 0 0 0   XYZ
    dof rx ry rz
    limits (-20.0 45.0)
           (-30.0 30.0)
           (-30.0 30.0)
  end
  begin
     id 14 
     name lowerneck
     direction 0.0168698 0.977854 0.208608   
     length 1.6375   
     axis 0 0 0   XYZ
    dof rx ry rz
    limits (-20.0 45.0)
           (-30.0 30.0)
           (-30.0 30.0)
  end
  begin
     id 15 
     name upperneck
     direction -0.0283988 0.989338 -0.142843   
     length 1.6851   
     axis 0 0 0   XYZ
    dof rx ry rz
    limits (-20.0 45.0)
           (-30.0 30.0)
           (-30.0 30.0)
  end
  begin
     id 16
     name head
     direction -0.0129422 0.99741 -0.0707489  
     length 1.69029  
     axis 0 0 0   XYZ
    dof rx ry rz
    limits (-20.0 45.0)
           (-30.0 30.0)
           (-30.0 30.0)
  end
  begin
     id 17 
     name lclavicle
     direction 0.820295 0.564628 -0.0911715  
     length 3.16484  
     axis 0 0 0   XYZ
    dof ry rz
    limits (-20.0 10.0)
           (0.0 20.0)
  end
  begin
     id 18 
     name lhumerus
     direction 1 -4.48969e-011 1.00186e-027   
     length 5.17853   
     axis 180 -30 -90   XYZ
    dof rx ry rz
    limits (-60.0 90.0)
           (-90.0 90.0)
           (-90.0 90.0)
  end
  begin
     id 19
     name lradius
     direction 1 -4.48966e-011 -1.52922e-027   
     length 3.40399   
     axis 180 -30 -90   XYZ
    dof rx
    limits (-10.0 170.0)
  end
  begin
     id 20
     name lwrist
     direction 1 -4.48981e-011 -3.80893e-027   
     length 1.70199   
     axis 1.1049e-015 90 90   XYZ
    dof ry
    limits (-180.0 0.0)
 end
  begin
     id 21 
     name lhand
     direction 1 -4.48957e-011 -7.61786e-027   
     length 0.708964   
     axis 4.86085e-015 90 90   XYZ
    dof rx rz
    limits (-90.0 90.0)
           (-45.0 45.0)
  end
  begin
     id 22 
     name lfingers
     direction 1 -4.48929e-011 -1.52357e-026   
     length 0.571585   
     axis 9.7217e-015 90 90   XYZ
    dof rx
    limits (0.0 90.0)
  end
  begin
     id 23
     name lthumb
     direction 0.707107 -6.34905e-011 0.707107   
     length 0.820685   
     axis -90 45 2.85299e-015   XYZ
    dof rx rz
    limits (-45.0 45.0)
           (-45.0 45.0)
  end
  begin
     id 24 
     name rclavicle
     direction -0.858602 0.463947 -0.218075   
     length 3.35137  
     axis 0 0 0   XYZ 
    dof ry rz
    limits (-10.0 20.0)
           (-20.0 0.0)
  end
  begin
     id 25 
     name rhumerus
     direction -1 -4.48969e-011 -1.98511e-027  
     length 5.42351   
     axis 180 30 90   XYZ
    dof rx ry rz
    limits (-90.0 60.0)
           (-90.0 90.0)
           (-90.0 90.0)
  end
  begin
     id 26 
     name rradius
     direction -1 -4.48961e-011 -2.82624e-027   
     length 3.42066   
     axis 180 30 90   XYZ
    dof rx
    limits (-10.0 170.0)
  end
  begin
     id 27 
     name rwrist
     direction -1 -4.48966e-011 -3.80893e-027   
     length 1.71033   
     axis 1.1049e-015 -90 -90   XYZ
    dof ry
    limits (-180.0 0.0)
  end
  begin
     id 28
     name rhand
     direction -1 -4.48964e-011 -7.61786e-027   
     length 0.743608   
     axis 4.86085e-015 -90 -90   XYZ
    dof rx rz
    limits (-90.0 90.0)
           (-45.0 45.0)
  end
  begin
     id 29
     name rfingers
     direction -1 -4.48961e-011 -1.52357e-026   
     length 0.599516   
     axis 9.7217e-015 -90 -90   XYZ
    dof rx
    limits (0.0 90.0)
  end
  begin
     id 30
     name rthumb
     direction -0.707107 -6.34913e-011 0.707107   
     length 0.860789   
     axis -90 -45 -2.85299e-015   XYZ
    dof rx rz
    limits (-45.0 45.0)
           (-45.0 45.0)
  end
:hierarchy
  begin
    root lhipjoint rhipjoint lowerback
    lhipjoint lfemur
    lfemur ltibia
    ltibia lfoot
    lfoot ltoes
    rhipjoint rfemur
    rfemur rtibia
    rtibia rfoot
    rfoot rtoes
    lowerback upperback
    upperback thorax
    thorax lowerneck lclavicle rclavicle
    lowerneck upperneck
    upperneck head
    lclavicle lhumerus
    lhumerus lradius
    lradius lwrist
    lwrist lhand lthumb
    lhand lfingers
    rclavicle rhumerus
    rhumerus rradius
    rradius rwrist
    rwrist rhand rthumb
    rhand rfingers
  end

#!OML:ASF E:\mmandel\Project 1\Capture day 1\Session 2\Subject.ASF
:FULLY-SPECIFIED
:DEGREES
618
root 7.3803 14.624 -1.46813 27.9241 82.2301 8.94874
lowerback 17.2328 1.26449 -5.4132
upperback 1.97205 0.774561 0.307173
thorax -7.61782 0.58655 3.2199
lowerneck -16.2566 3.07588 5.39303
upperneck 4.18034 3.65847 -6.72675
head 4.08789 1.54231 -2.65385
rclavicle -2.23633e-015 -1.71452e-015
rhumerus -22.2953 4.9217 -81.919
rradius 62.722
rwrist -21.4563
rhand -18.6068 31.8359
rfingers 7.12502
rthumb 7.68472 1.99555
lclavicle -2.23633e-015 -1.71452e-015
lhumerus -11.3576 -9.2893 75.4251
lradius 39.7606
lwrist 21.2067
lhand -17.5782 -31.3077
lfingers 7.12502
lthumb 8.67741 -1.50604
rfemur -58.7981 -7.27087 12.6231
rtibia 67.9429
rfoot -29.0454 -3.93733
rtoes -14.3986
lfemur -53.1859 23.3827 -16.9233
ltibia 63.6843
lfoot -24.0531 -3.73474
ltoes -0.103478
619
root 7.38192 14.6237 -1.48869 27.8065 82.2242 8.82941
lowerback 17.2044 1.22291 -5.36387
upperback 1.96232 0.727597 0.274469
thorax -7.60721 0.561674 3.16775
lowerneck -16.1069 3.05175 5.41414
upperneck 4.11261 3.62622 -6.74058
head 4.04231 1.52897 -2.66558
rclavicle -7.96692e-016 -2.66185e-015
rhumerus -22.6754 5.09743 -81.9596
rradius 63.5438
rwrist -21.4478
rhand -18.5104 32.0545
rfingers 7.12502
rthumb 7.77769 2.21756
lclavicle -7.96692e-016 -2.66185e-015
lhumerus -12.0008 -9.32419 75.2038
lradius 40.2383
lwrist 21.2036
lhand -17.7415 -31.4652
lfingers 7.12502
lthumb 8.51981 -1.65712
rfemur -58.8015 -7.36009 12.5675
rtibia 67.8973
rfoot -28.9372 -3.86357
rtoes -14.3203
lfemur -53.2188 23.25 -16.9592
ltibia 63.8056
lfoot -24.173 -3.68364
ltoes 0.711159
620
root 7.38151 14.6239 -1.50404 26.7841 82.2451 7.79762
lowerback 17.2483 1.20055 -5.31438
upperback 1.95733 0.705835 0.288732
thorax -7.6343 0.550688 3.15992
lowerneck -16.2843 3.07767 5.45168
upperneck 4.23234 3.64661 -6.70308
head 4.10792 1.53747 -2.65667
rclavicle 8.52289e-015 -1.10325e-014
rhumerus -23.0191 5.22593 -82.0385
rradius 64.4456
rwrist -21.4409
rhand -18.4958 31.9987
rfingers 7.12502
rthumb 7.79184 2.16232
lclavicle 8.52289e-015 -1.10325e-014
lhumerus -12.6045 -9.48006 74.9143
lradius 40.8689
lwrist 21.441
lhand -17.8776 -31.4795
lfingers 7.12502
lthumb 8.38847 -1.6661
rfemur -58.797 -7.35876 12.6727
rtibia 67.8471
rfoot -28.8666 -3.87722
rtoes -14.4606
lfemur -53.2813 23.1829 -16.8364
ltibia 63.9237
lfoot -24.2277 -3.68671
ltoes 1.67129
621
root 7.38028 14.6218 -1.52403 25.5223 82.1933 6.55733
lowerback 17.3346 1.20952 -5.20569
upperback 1.98197 0.733693 0.274581
thorax -7.65614 0.56109 3.07579
lowerneck -16.433 3.07019 5.4428
upperneck 4.23126 3.62318 -6.60039
head 4.12665 1.52953 -2.62408
rclavicle -5.2181e-016 1.87852e-014
rhumerus -23.2365 5.32729 -82.1102
rradius 65.2087
rwrist -21.4526
rhand -18.6049 31.8743
rfingers 7.12502
rthumb 7.68648 2.03401
lclavicle -5.2181e-016 1.87852e-014
lhumerus -13.0588 -9.70148 74.6093
lradius 41.4248
lwrist 21.7703
lhand -17.8035 -31.2602
lfingers 7.12502
lthumb 8.45999 -1.44964
rfemur -58.7657 -7.31455 12.7679
rtibia 67.7959
rfoot -28.8244 -3.80685
rtoes -14.5544
lfemur -53.3049 23.2013 -16.7104
ltibia 64.0452
lfoot -24.2444 -3.52553
ltoes 1.0919
622
root 7.37808 14.6187 -1.54448 24.5683 82.0457 5.57156
lowerback 17.3707 1.2686 -5.14887
upperback 1.97072 0.817823 0.259291
thorax -7.69513 0.600515 3.0066
lowerneck -16.4724 3.08162 5.33241
upperneck 4.26712 3.65569 -6.54203
head 4.14256 1.54594 -2.58485
rclavicle -2.14439e-014 1.6201e-014
rhumerus -23.5075 5.47093 -82.0943
rradius 65.9405
rwrist -21.4137
rhand -18.6293 32.0206
rfingers 7.12502
rthumb 7.66292 2.1794
lclavicle -2.14439e-014 1.6201e-014
lhumerus -13.5281 -9.85804 74.4057
lradius 41.9218
lwrist 21.8699
lhand -17.779 -30.9843
lfingers 7.12502
lthumb 8.48365 -1.17475
rfemur -58.853 -7.17997 12.7985
rtibia 67.7531
rfoot -28.7575 -3.83488
rtoes -14.7913
lfemur -53.3807 23.3194 -16.6844
ltibia 64.1491
lfoot -24.2571 -3.35408
ltoes 0.0377716
623
root 7.37959 14.6197 -1.55833 25.2866 81.8421 6.1835
lowerback 17.3498 1.37082 -5.45352
upperback 1.89104 0.890287 0.256806
thorax -7.78154 0.647385 3.15972
lowerneck -16.7536 3.15827 5.47337
upperneck 4.53651 3.76307 -6.91208
head 4.28826 1.5722 -2.71144
rclavicle 2.10836e-014 2.21148e-014
rhumerus -23.8885 5.61317 -81.9814
rradius 66.7937
rwrist -21.3093
rhand -18.4503 32.2076
rfingers 7.12502
rthumb 7.83569 2.37283
lclavicle 2.10836e-014 2.21148e-014
lhumerus -14.066 -10.0009 74.3221
lradius 42.4698
lwrist 21.8938
lhand -17.8232 -30.7693
lfingers 7.12502
lthumb 8.44097 -0.957995
rfemur -59.0486 -7.11313 12.6267
rtibia 67.7296
rfoot -28.6561 -3.88783
rtoes -15.1798
lfemur -53.5149 23.4348 -16.9521
ltibia 64.2079
lfoot -24.3139 -3.29211
ltoes -0.393911
624
root 7.38597 14.6199 -1.57239 26.0039 81.7107 6.90114
lowerback 17.3235 1.43766 -5.6998
upperback 1.88021 0.929831 0.224247
thorax -7.78594 0.6739 3.25525
lowerneck -16.6557 3.20249 5.64266
upperneck 4.39144 3.80989 -7.16101
head 4.24048 1.58773 -2.81349
rclavicle -2.98177e-015 -5.19325e-015
rhumerus -24.189 5.67489 -81.9509
rradius 67.6513
rwrist -21.2144
rhand -18.3361 32.1154
rfingers 7.12502
rthumb 7.94591 2.2848
lclavicle -2.98177e-015 -5.19325e-015
lhumerus -14.611 -10.1873 74.1968
lradius 43.0945
lwrist 22.0706
lhand -17.822 -30.762
lfingers 7.12502
lthumb 8.44215 -0.950722
rfemur -59.0527 -7.18543 12.4555
rtibia 67.7061
rfoot -28.6154 -3.80516
rtoes -15.4725
lfemur -53.5141 23.515 -17.1871
ltibia 64.2704
lfoot -24.3775 -3.40574
ltoes 0.217073
